HIERARCHY
ROOT hips
{
	OFFSET 0.000000 104.274902 0.000000
	CHANNELS 6 Xposition Yposition Zposition Xrotation Yrotation Zrotation
	JOINT spine
	{
		OFFSET 0.000000 10.181549 0.131524
		CHANNELS 6 Xposition Yposition Zposition Xrotation Yrotation Zrotation
		JOINT chest
		{
			OFFSET 0.000000 9.893990 -1.470706
			CHANNELS 3 Xrotation Yrotation Zrotation
			JOINT upperChest
			{
				OFFSET 0.000000 9.220787 -1.370637
				CHANNELS 3 Xrotation Yrotation Zrotation
				JOINT neck
				{
					OFFSET 0.000000 16.740372 -2.049022
					CHANNELS 6 Xposition Yposition Zposition Xrotation Yrotation Zrotation
					JOINT head
					{
						OFFSET 0.000000 9.617859 1.684976
						CHANNELS 6 Xposition Yposition Zposition Xrotation Yrotation Zrotation
						JOINT headEnd
						{
							OFFSET 0.000000 22.037384 7.501072
							CHANNELS 6 Xposition Yposition Zposition Xrotation Yrotation Zrotation
							End Site
							{
								OFFSET 0.000000 23.106567 -2.828246
							}
						}
					}
				}
				JOINT rightShoulder
				{
					OFFSET -4.570000 11.014877 -2.160840
					CHANNELS 6 Xposition Yposition Zposition Xrotation Yrotation Zrotation
					JOINT rightUpperArm
					{
						OFFSET -10.592867 -0.524796 -2.232105
						CHANNELS 3 Xrotation Yrotation Zrotation
						JOINT rightLowerArm
						{
							OFFSET -27.841497 0.000000 -0.000002
							CHANNELS 3 Xrotation Yrotation Zrotation
							JOINT rightHand
							{
								OFFSET -28.328812 0.000000 -0.000001
								CHANNELS 3 Xrotation Yrotation Zrotation
								JOINT rightThumbProximal
								{
									OFFSET -2.464798 -1.573990 2.681911
									CHANNELS 6 Xposition Yposition Zposition Xrotation Yrotation Zrotation
									JOINT rightThumbIntermediate
									{
										OFFSET -3.244781 -1.873383 1.873376
										CHANNELS 3 Xrotation Yrotation Zrotation
										JOINT rightThumbDistal
										{
											OFFSET -2.646263 -1.527817 1.527818
											CHANNELS 6 Xposition Yposition Zposition Xrotation Yrotation Zrotation
											JOINT rightHandThumb4
											{
												OFFSET -1.994591 -1.151581 1.151575
												CHANNELS 6 Xposition Yposition Zposition Xrotation Yrotation Zrotation
												End Site
												{
													OFFSET -1.860176 -1.142715 1.365483
												}
											}
										}
									}
								}
								JOINT rightIndexProximal
								{
									OFFSET -9.108299 -0.517883 2.259803
									CHANNELS 6 Xposition Yposition Zposition Xrotation Yrotation Zrotation
									JOINT rightIndexIntermediate
									{
										OFFSET -3.699997 0.000000 0.000000
										CHANNELS 3 Xrotation Yrotation Zrotation
										JOINT rightIndexDistal
										{
											OFFSET -2.850006 0.000000 0.000000
											CHANNELS 3 Xrotation Yrotation Zrotation
											JOINT rightHandIndex4
											{
												OFFSET -2.772194 0.000000 0.000000
												CHANNELS 3 Xrotation Yrotation Zrotation
												End Site
												{
													OFFSET -2.772202 0.000000 -0.000484
												}
											}
										}
									}
								}
								JOINT rightMiddleProximal
								{
									OFFSET -9.532501 0.000000 -0.000000
									CHANNELS 6 Xposition Yposition Zposition Xrotation Yrotation Zrotation
									JOINT rightMiddleIntermediate
									{
										OFFSET -3.699997 0.000000 0.000000
										CHANNELS 3 Xrotation Yrotation Zrotation
										JOINT rightMiddleDistal
										{
											OFFSET -2.949997 0.000000 0.000000
											CHANNELS 3 Xrotation Yrotation Zrotation
											JOINT rightHandMiddle4
											{
												OFFSET -2.946594 0.000000 0.000000
												CHANNELS 3 Xrotation Yrotation Zrotation
												End Site
												{
													OFFSET -2.946602 0.000000 -0.000982
												}
											}
										}
									}
								}
								JOINT rightRingProximal
								{
									OFFSET -9.103600 -0.043106 -1.865100
									CHANNELS 6 Xposition Yposition Zposition Xrotation Yrotation Zrotation
									JOINT rightRingIntermediate
									{
										OFFSET -3.379303 0.000000 0.000000
										CHANNELS 3 Xrotation Yrotation Zrotation
										JOINT rightRingDistal
										{
											OFFSET -2.889694 0.000000 0.000000
											CHANNELS 3 Xrotation Yrotation Zrotation
											JOINT rightHandRing4
											{
												OFFSET -2.638802 0.000000 0.000000
												CHANNELS 3 Xrotation Yrotation Zrotation
												End Site
												{
													OFFSET -2.638802 0.000000 0.004218
												}
											}
										}
									}
								}
								JOINT rightLittleProximal
								{
									OFFSET -8.076698 -0.486725 -3.806299
									CHANNELS 6 Xposition Yposition Zposition Xrotation Yrotation Zrotation
									JOINT rightLittleIntermediate
									{
										OFFSET -3.600006 0.000000 0.000000
										CHANNELS 3 Xrotation Yrotation Zrotation
										JOINT rightLittleDistal
										{
											OFFSET -2.099998 0.000000 0.000000
											CHANNELS 3 Xrotation Yrotation Zrotation
											JOINT rightHandPinky4
											{
												OFFSET -2.115791 0.000000 0.000000
												CHANNELS 3 Xrotation Yrotation Zrotation
												End Site
												{
													OFFSET -2.115799 0.000000 0.000174
												}
											}
										}
									}
								}
							}
						}
					}
				}
				JOINT leftShoulder
				{
					OFFSET 4.570400 11.014679 -2.160816
					CHANNELS 6 Xposition Yposition Zposition Xrotation Yrotation Zrotation
					JOINT leftUpperArm
					{
						OFFSET 10.592373 -0.524597 -2.232116
						CHANNELS 3 Xrotation Yrotation Zrotation
						JOINT leftLowerArm
						{
							OFFSET 27.841488 0.000000 0.000001
							CHANNELS 3 Xrotation Yrotation Zrotation
							JOINT leftHand
							{
								OFFSET 28.328808 0.000000 -0.000000
								CHANNELS 3 Xrotation Yrotation Zrotation
								JOINT leftThumbProximal
								{
									OFFSET 2.466103 -1.576202 2.681698
									CHANNELS 6 Xposition Yposition Zposition Xrotation Yrotation Zrotation
									JOINT leftThumbIntermediate
									{
										OFFSET 3.243317 -1.872528 1.872530
										CHANNELS 3 Xrotation Yrotation Zrotation
										JOINT leftThumbDistal
										{
											OFFSET 2.647881 -1.528763 1.528754
											CHANNELS 6 Xposition Yposition Zposition Xrotation Yrotation Zrotation
											JOINT leftHandThumb4
											{
												OFFSET 1.998924 -1.154083 1.154080
												CHANNELS 6 Xposition Yposition Zposition Xrotation Yrotation Zrotation
												End Site
												{
													OFFSET 1.884041 -1.149155 1.337651
												}
											}
										}
									}
								}
								JOINT leftIndexProximal
								{
									OFFSET 9.109299 -0.518005 2.259900
									CHANNELS 6 Xposition Yposition Zposition Xrotation Yrotation Zrotation
									JOINT leftIndexIntermediate
									{
										OFFSET 3.699997 0.000000 0.000000
										CHANNELS 3 Xrotation Yrotation Zrotation
										JOINT leftIndexDistal
										{
											OFFSET 2.850006 0.000000 0.000000
											CHANNELS 3 Xrotation Yrotation Zrotation
											JOINT leftHandIndex4
											{
												OFFSET 2.774895 0.000000 0.000000
												CHANNELS 3 Xrotation Yrotation Zrotation
												End Site
												{
													OFFSET 2.774902 0.000000 -0.000072
												}
											}
										}
									}
								}
								JOINT leftMiddleProximal
								{
									OFFSET 9.533401 0.000000 0.000000
									CHANNELS 6 Xposition Yposition Zposition Xrotation Yrotation Zrotation
									JOINT leftMiddleIntermediate
									{
										OFFSET 3.699997 0.000000 0.000000
										CHANNELS 3 Xrotation Yrotation Zrotation
										JOINT leftMiddleDistal
										{
											OFFSET 2.949997 0.000000 0.000000
											CHANNELS 3 Xrotation Yrotation Zrotation
											JOINT leftHandMiddle4
											{
												OFFSET 2.952896 0.000000 0.000000
												CHANNELS 3 Xrotation Yrotation Zrotation
												End Site
												{
													OFFSET 2.952904 0.000000 0.000165
												}
											}
										}
									}
								}
								JOINT leftRingProximal
								{
									OFFSET 9.104500 -0.042999 -1.865101
									CHANNELS 6 Xposition Yposition Zposition Xrotation Yrotation Zrotation
									JOINT leftRingIntermediate
									{
										OFFSET 3.149994 0.000000 0.000000
										CHANNELS 3 Xrotation Yrotation Zrotation
										JOINT leftRingDistal
										{
											OFFSET 2.950005 0.000000 0.000000
											CHANNELS 3 Xrotation Yrotation Zrotation
											JOINT leftHandRing4
											{
												OFFSET 2.644302 0.000000 0.000000
												CHANNELS 3 Xrotation Yrotation Zrotation
												End Site
												{
													OFFSET 2.644302 0.000000 0.000083
												}
											}
										}
									}
								}
								JOINT leftLittleProximal
								{
									OFFSET 8.077805 -0.486893 -3.806302
									CHANNELS 6 Xposition Yposition Zposition Xrotation Yrotation Zrotation
									JOINT leftLittleIntermediate
									{
										OFFSET 3.600006 0.000000 0.000000
										CHANNELS 3 Xrotation Yrotation Zrotation
										JOINT leftLittleDistal
										{
											OFFSET 2.099998 0.000000 0.000000
											CHANNELS 3 Xrotation Yrotation Zrotation
											JOINT leftHandPinky4
											{
												OFFSET 2.125496 0.000000 0.000000
												CHANNELS 3 Xrotation Yrotation Zrotation
												End Site
												{
													OFFSET 2.125504 0.000000 -0.001254
												}
											}
										}
									}
								}
							}
						}
					}
				}
			}
		}
	}
	JOINT rightUpperLeg
	{
		OFFSET -8.207800 -6.751701 -1.599544
		CHANNELS 6 Xposition Yposition Zposition Xrotation Yrotation Zrotation
		JOINT rightLowerLeg
		{
			OFFSET 0.000004 -44.370152 0.345934
			CHANNELS 3 Xrotation Yrotation Zrotation
			JOINT rightFoot
			{
				OFFSET 0.000004 -44.423664 -3.043535
				CHANNELS 3 Xrotation Yrotation Zrotation
				JOINT rightToes
				{
					OFFSET 0.000001 -8.728691 10.710592
					CHANNELS 3 Xrotation Yrotation Zrotation
					JOINT rightToesEnd
					{
						OFFSET 0.000000 -0.000665 9.278101
						CHANNELS 3 Xrotation Yrotation Zrotation
						End Site
						{
							OFFSET 0.000000 -0.000665 9.278103
						}
					}
				}
			}
		}
	}
	JOINT leftUpperLeg
	{
		OFFSET 8.207800 -6.751701 -1.599544
		CHANNELS 6 Xposition Yposition Zposition Xrotation Yrotation Zrotation
		JOINT leftLowerLeg
		{
			OFFSET 0.000004 -44.370037 0.346940
			CHANNELS 3 Xrotation Yrotation Zrotation
			JOINT leftFoot
			{
				OFFSET 0.000004 -44.423611 -3.044388
				CHANNELS 3 Xrotation Yrotation Zrotation
				JOINT leftToes
				{
					OFFSET 0.000001 -8.728690 10.710592
					CHANNELS 3 Xrotation Yrotation Zrotation
					JOINT leftToesEnd
					{
						OFFSET 0.000000 -0.000680 9.278101
						CHANNELS 3 Xrotation Yrotation Zrotation
						End Site
						{
							OFFSET 0.000000 -0.000680 9.278101
						}
					}
				}
			}
		}
	}
}
MOTION
Frames: 4
Frame Time: 0.033333
3.334835 82.341988 7.367451 57.539877 59.027642 -36.764186 0.000004 10.181545 0.131528 16.945838 -4.871976 -4.820722 -4.240427 0.562565 -2.915308 1.753388 -0.125230 -3.095302 -0.000001 16.740372 -2.049030 -8.906128 -9.756487 1.751664 0.000006 9.617849 1.684983 5.451021 -46.674770 21.669784 -0.000002 22.037369 7.501078 -0.000001 0.000000 -0.000000 -4.570001 11.014882 -2.160840 4.882927 14.453054 -1.329088 -54.352091 -18.466741 22.191973 -0.000037 48.238477 0.000070 32.255650 6.013042 -46.533447 -2.464794 -1.573976 2.681917 -15.028933 -3.770473 12.064424 7.241999 -22.862494 -4.298395 -2.646261 -1.527832 1.527815 -3.459188 -24.954429 -18.671248 -1.994594 -1.151601 1.151579 0.000001 -0.000003 0.000001 -9.108305 -0.517880 2.259804 0.053000 -2.067234 -2.637795 0.046367 -0.656277 8.083189 0.041343 -0.619838 7.631565 0.000000 -0.000003 0.000001 -9.532503 0.000006 -0.000001 0.109042 -3.033624 9.269359 0.047180 -0.661919 8.153298 0.030761 -0.534993 6.582041 0.000001 0.000001 0.000000 -9.103581 -0.043088 -1.865096 3.633796 -10.204286 27.677322 0.331885 -1.728235 21.739411 0.456561 -2.012794 25.557644 0.000000 0.000001 -0.000000 -8.076699 -0.486728 -3.806291 10.365515 -21.195750 37.555819 0.938135 -2.805171 36.976677 2.300853 -4.018215 59.577718 0.000001 -0.000000 -0.000001 4.570400 11.014695 -2.160818 5.882389 1.246054 -4.633453 53.013831 -35.745214 -29.582946 -0.000011 -43.910002 0.000013 -18.874750 -33.260795 14.890734 2.466094 -1.576207 2.681701 -27.431952 4.605180 1.753973 1.889410 16.812932 19.948546 2.647893 -1.528766 1.528748 -10.811241 12.471423 15.847070 1.998913 -1.154088 1.154073 0.000003 0.000002 0.000001 9.109306 -0.518018 2.259898 6.502836 -7.017349 -1.113495 1.569556 3.991784 -42.917695 0.025364 0.545270 -5.328648 -0.000001 0.000004 0.000000 9.533396 0.000004 0.000000 -0.450566 0.449766 -11.747948 1.665991 4.092792 -44.285615 0.025214 0.543674 -5.312989 -0.000001 -0.000000 -0.000000 9.104512 -0.042998 -1.865100 3.763186 13.016796 -20.727652 1.092256 3.408267 -35.531511 1.251362 3.620323 -38.126778 -0.000000 -0.000002 -0.000000 8.077789 -0.486891 -3.806297 -4.566548 24.090786 -19.461880 0.934873 3.176741 -32.791810 1.259719 3.630917 -38.258714 -0.000000 -0.000001 0.000001 -8.207796 -6.751703 -1.599541 -67.108234 14.988717 -39.195952 27.975260 -5.292231 -2.531271 35.274222 -28.224490 27.781620 -3.630514 -0.000006 -0.000002 -0.000000 0.000000 0.000000 8.207802 -6.751703 -1.599545 -62.494496 16.583510 2.567181 70.322467 4.728934 1.507781 -24.783340 22.038264 -9.878183 -3.827246 -0.000017 -0.000007 0.000000 -0.000000 -0.000000 
3.349077 81.858322 7.022820 57.717578 59.353709 -36.999278 -0.000000 10.181557 0.131525 16.786967 -5.119830 -5.130798 -4.417379 0.538878 -3.067089 1.599067 -0.157685 -3.247039 -0.000003 16.740351 -2.049006 -9.679093 -9.908508 1.855249 0.000002 9.617854 1.684963 5.337933 -46.733964 21.199167 -0.000003 22.037384 7.501063 -0.000000 -0.000001 -0.000000 -4.570003 11.014889 -2.160834 4.850648 13.961776 -0.790931 -54.975892 -17.415893 22.464777 -0.000043 47.286079 0.000056 32.106742 6.095648 -46.547555 -2.464795 -1.574004 2.681917 -13.906492 -3.688125 13.889804 7.373610 -23.020143 -2.806045 -2.646265 -1.527794 1.527818 -3.459193 -24.954448 -18.671265 -1.994586 -1.151571 1.151579 0.000004 -0.000004 -0.000002 -9.108295 -0.517877 2.259809 0.077493 -1.758726 -6.436810 0.027987 -0.510372 6.277808 0.018498 -0.415150 5.102929 -0.000001 0.000001 0.000002 -9.532496 0.000002 0.000004 0.069299 -2.726705 5.467524 0.028614 -0.516042 6.347915 0.011680 -0.329925 4.053459 0.000001 -0.000000 -0.000000 -9.103600 -0.043080 -1.865094 3.290252 -10.159375 25.148345 0.330902 -1.725764 21.706778 0.456541 -2.012751 25.557041 -0.000000 0.000000 -0.000000 -8.076688 -0.486728 -3.806291 10.241490 -21.040184 35.011461 0.938134 -2.805168 36.976667 2.300844 -4.018223 59.577712 0.000000 -0.000000 0.000001 4.570395 11.014689 -2.160807 6.176226 2.970406 -5.194376 52.818597 -34.390453 -27.038193 -0.000001 -43.049149 0.000008 -19.389372 -33.498868 15.462160 2.466084 -1.576200 2.681702 -26.280976 4.185336 1.370882 2.047703 17.203414 17.080066 2.647879 -1.528741 1.528744 -11.249264 9.038064 15.035613 1.998925 -1.154079 1.154073 0.000004 0.000001 -0.000000 9.109282 -0.518001 2.259899 6.059316 -7.317686 -0.720959 1.382075 3.780621 -40.151865 0.025360 0.545217 -5.328182 -0.000003 0.000003 -0.000005 9.533403 0.000003 0.000000 -0.458910 0.351557 -11.547564 1.466877 3.878680 -41.421460 0.025235 0.543757 -5.313785 -0.000000 0.000001 -0.000002 9.104487 -0.042997 -1.865100 3.851509 13.341843 -20.506610 1.193042 3.544892 -37.193314 1.252685 3.622005 -38.147805 0.000002 -0.000002 -0.000001 8.077812 -0.486895 -3.806303 -4.000677 24.157450 -19.264909 1.039847 3.333773 -34.640271 1.260210 3.631538 -38.266507 -0.000003 -0.000001 0.000001 -8.207797 -6.751701 -1.599554 -67.491155 15.287440 -39.565425 28.936503 -5.176548 -2.598376 35.575334 -28.640059 28.482623 -3.620489 0.000002 -0.000007 -0.000000 0.000001 -0.000000 8.207800 -6.751691 -1.599542 -62.952692 16.256260 2.155683 71.433233 4.827928 1.517593 -25.324257 22.220427 -9.717366 -3.978075 0.000004 0.000011 0.000000 -0.000001 0.000000 
3.258396 81.468376 6.662514 57.707271 59.382525 -37.032879 0.000000 10.181542 0.131531 16.599721 -5.306176 -5.403126 -4.481157 0.518205 -3.225068 1.514938 -0.184888 -3.403093 0.000004 16.740370 -2.049018 -10.365048 -10.021799 1.892165 0.000001 9.617867 1.684977 5.082114 -46.840597 20.765327 0.000001 22.037369 7.501082 -0.000001 0.000000 -0.000001 -4.569998 11.014873 -2.160836 4.739992 13.646716 -0.049201 -55.445324 -16.020977 22.771094 -0.000007 46.526774 0.000031 31.699068 6.111302 -46.611492 -2.464793 -1.573996 2.681914 -13.380414 -3.646229 14.730104 7.435841 -23.090493 -2.113436 -2.646268 -1.527782 1.527816 -3.459191 -24.954458 -18.671268 -1.994612 -1.151584 1.151584 -0.000000 -0.000002 -0.000001 -9.108304 -0.517876 2.259806 0.095776 -1.616398 -8.197808 0.021036 -0.442564 5.440852 0.010981 -0.319955 3.930741 0.000001 -0.000002 -0.000002 -9.532499 0.000003 0.000004 0.057821 -2.583664 3.705445 0.021569 -0.448234 5.510979 0.005898 -0.234611 2.881295 -0.000000 0.000001 -0.000003 -9.103604 -0.043111 -1.865092 3.128394 -10.126411 23.976177 0.330450 -1.724623 21.691622 0.456520 -2.012744 25.556780 -0.000002 0.000001 0.000001 -8.076689 -0.486726 -3.806289 10.182605 -20.956940 33.832949 0.938129 -2.805179 36.976650 2.300843 -4.018216 59.577712 0.000000 -0.000000 -0.000000 4.570405 11.014692 -2.160817 6.479026 4.628483 -5.823385 52.581853 -33.426731 -25.065602 -0.000008 -42.224660 0.000006 -19.978344 -33.747138 15.801506 2.466114 -1.576211 2.681704 -24.724185 3.579648 0.859413 2.294953 17.723979 13.154606 2.647897 -1.528745 1.528751 -11.921239 4.359941 13.893867 1.998909 -1.154094 1.154081 -0.000000 -0.000002 -0.000000 9.109313 -0.518008 2.259902 5.460658 -7.737752 -0.189075 1.143031 3.478157 -36.377137 0.025350 0.544972 -5.325678 -0.000001 0.000000 -0.000002 9.533403 0.000004 0.000005 -0.469175 0.217268 -11.272317 1.212847 3.570809 -37.512659 0.025224 0.543684 -5.312997 -0.000002 0.000003 0.000000 9.104516 -0.042995 -1.865096 3.967943 13.786452 -20.204331 1.337002 3.726651 -39.463498 1.254611 3.624446 -38.178056 -0.000000 0.000002 -0.000001 8.077813 -0.486898 -3.806299 -3.229626 24.257441 -19.000705 1.191335 3.542639 -37.165484 1.260966 3.632505 -38.278665 -0.000004 0.000000 -0.000001 -8.207800 -6.751710 -1.599546 -67.918001 15.285297 -39.867691 29.247813 -5.406806 -2.465079 34.963038 -27.187216 27.604047 -3.635569 -0.000009 0.000001 -0.000000 0.000001 0.000000 8.207801 -6.751709 -1.599545 -63.542869 16.156915 1.995847 72.335296 4.809156 1.531386 -25.710762 22.517226 -9.515252 -4.047401 -0.000030 -0.000002 0.000000 0.000001 0.000000 
3.096546 81.163567 6.318314 57.462921 59.152928 -36.722362 -0.000002 10.181542 0.131533 16.479561 -5.489896 -5.636529 -4.510961 0.492268 -3.384545 1.471289 -0.218768 -3.560105 -0.000002 16.740368 -2.049022 -11.009749 -10.075125 1.822375 0.000007 9.617827 1.684978 4.658541 -46.929608 20.344828 -0.000002 22.037384 7.501067 -0.000001 0.000000 -0.000000 -4.570004 11.014872 -2.160843 4.645452 13.504606 0.526222 -55.747400 -14.667616 23.310164 -0.000056 46.029201 0.000076 31.581026 6.087636 -46.931650 -2.464786 -1.574003 2.681908 -13.288754 -3.644201 14.867367 7.446163 -23.101081 -1.997823 -2.646265 -1.527784 1.527816 -3.459190 -24.954446 -18.671263 -1.994606 -1.151585 1.151578 0.000001 -0.000001 0.000003 -9.108298 -0.517847 2.259802 0.099253 -1.592724 -8.491505 0.019969 -0.431232 5.301310 0.009908 -0.304056 3.735244 0.000002 -0.000002 -0.000002 -9.532481 0.000005 -0.000001 0.056332 -2.559781 3.411604 0.020483 -0.436912 5.371417 0.005138 -0.218728 2.685796 0.000001 -0.000001 -0.000000 -9.103581 -0.043112 -1.865104 3.100353 -10.118095 23.780736 0.330365 -1.724409 21.689103 0.456532 -2.012755 25.556722 0.000001 -0.000001 0.000003 -8.076699 -0.486711 -3.806303 10.169749 -20.937030 33.636079 0.938126 -2.805165 36.976674 2.300848 -4.018212 59.577712 -0.000001 0.000000 0.000001 4.570396 11.014690 -2.160814 6.811440 6.185037 -6.476720 52.419981 -33.041894 -23.626010 -0.000011 -41.401093 -0.000005 -20.514154 -34.076189 15.973082 2.466099 -1.576204 2.681704 -22.949623 2.834347 0.289992 2.625265 18.302508 8.623733 2.647890 -1.528740 1.528744 -12.807107 -1.001793 12.516331 1.998913 -1.154094 1.154071 -0.000001 -0.000003 0.000001 9.109303 -0.518010 2.259899 4.781794 -8.235005 0.414004 0.893618 3.111822 -32.039232 0.025312 0.544656 -5.322700 0.000001 0.000001 -0.000001 9.533397 0.000008 0.000001 -0.479520 0.062767 -10.955648 0.947621 3.196383 -33.020884 0.025205 0.543571 -5.311978 0.000001 0.000001 -0.000001 9.104490 -0.042995 -1.865100 4.095859 14.299149 -19.855672 1.511393 3.928447 -42.075379 1.256806 3.627225 -38.212914 0.000001 -0.000000 0.000000 8.077812 -0.486883 -3.806298 -2.344969 24.384986 -18.701408 1.376758 3.774304 -40.070900 1.261857 3.633631 -38.292749 -0.000001 -0.000003 -0.000002 -8.207811 -6.751699 -1.599538 -68.452388 15.355882 -39.975168 29.221926 -5.976241 -2.276591 34.332612 -25.273839 26.039692 -3.640309 0.000005 -0.000007 -0.000000 -0.000000 0.000000 8.207796 -6.751709 -1.599544 -64.159628 16.352055 2.040809 73.019148 4.811671 1.542027 -25.950025 22.791867 -9.354983 -4.017061 -0.000068 0.000002 0.000000 0.000001 0.000000 
